<mxfile host="app.diagrams.net" modified="2023-08-14T14:55:47.537Z" agent="Mozilla/5.0 (Windows NT 10.0; Win64; x64) AppleWebKit/537.36 (KHTML, like Gecko) Chrome/115.0.0.0 Safari/537.36 Edg/115.0.1901.203" version="21.6.8" etag="YK3w4vcLHFD5SX6CzHpX" type="github">
  <diagram name="PÃ¡gina-1" id="3QVLbf-tPuErI0bsOBqx">
    <mxGraphModel>
      <root>
        <mxCell id="0" />
        <mxCell id="1" parent="0" />
      </root>
    </mxGraphModel>
  </diagram>
</mxfile>
